<?xml version="1.0" ?><svg viewBox="0 0 64 64" xmlns="http://www.w3.org/2000/svg"><g id="School-Buiding-Education-University-Colledge"><polygon points="61 57 61 61 3 61 3 57 4 57 16 57 25 57 32 57 39 57 48 57 60 57 61 57" style="fill:#bddbff"/><polygon points="58 20 61 26 60 26 48 26 48 20 48.08 20 51 22 51 20 58 20" style="fill:#bddbff"/><rect height="31" style="fill:#bddbff" width="12" x="48" y="26"/><path d="M39,45H25V57H16V19.95L32,9,48,19.95V57H39ZM37,20a5,5,0,1,0-5,5A5,5,0,0,0,37,20Z" style="fill:#bddbff"/><rect height="31" style="fill:#bddbff" width="12" x="4" y="26"/><polygon points="16 20 16 26 4 26 3 26 6 20 13 20 13 22 15.92 20 16 20" style="fill:#bddbff"/><polygon points="32 3 13 16 13 20 13 22 15.92 20 16 19.95 32 9 48 19.95 48.08 20 51 22 51 20 51 16 32 3" style="fill:#bddbff"/><rect height="2" style="fill:#3d9ae2" width="2" x="51" y="36"/><rect height="2" style="fill:#3d9ae2" width="2" x="55" y="36"/><rect height="2" style="fill:#3d9ae2" width="2" x="51" y="32"/><rect height="2" style="fill:#3d9ae2" width="2" x="55" y="32"/><rect height="2" style="fill:#3d9ae2" width="2" x="51" y="40"/><rect height="2" style="fill:#3d9ae2" width="2" x="55" y="40"/><rect height="2" style="fill:#3d9ae2" width="2" x="51" y="44"/><rect height="2" style="fill:#3d9ae2" width="2" x="55" y="44"/><rect height="2" style="fill:#3d9ae2" width="2" x="51" y="48"/><rect height="2" style="fill:#3d9ae2" width="2" x="55" y="48"/><rect height="2" style="fill:#3d9ae2" width="2" x="11" y="36"/><rect height="2" style="fill:#3d9ae2" width="2" x="7" y="36"/><rect height="2" style="fill:#3d9ae2" width="2" x="11" y="32"/><rect height="2" style="fill:#3d9ae2" width="2" x="7" y="32"/><rect height="2" style="fill:#3d9ae2" width="2" x="11" y="40"/><rect height="2" style="fill:#3d9ae2" width="2" x="7" y="40"/><rect height="2" style="fill:#3d9ae2" width="2" x="11" y="44"/><rect height="2" style="fill:#3d9ae2" width="2" x="7" y="44"/><rect height="2" style="fill:#3d9ae2" width="2" x="11" y="48"/><rect height="2" style="fill:#3d9ae2" width="2" x="7" y="48"/><rect height="2" style="fill:#3d9ae2" width="2" x="33" y="28"/><rect height="2" style="fill:#3d9ae2" width="2" x="29" y="28"/><rect height="2" style="fill:#3d9ae2" width="2" x="33" y="32"/><rect height="2" style="fill:#3d9ae2" width="2" x="29" y="32"/><rect height="2" style="fill:#3d9ae2" width="2" x="41" y="28"/><rect height="2" style="fill:#3d9ae2" width="2" x="37" y="28"/><rect height="2" style="fill:#3d9ae2" width="2" x="41" y="32"/><rect height="2" style="fill:#3d9ae2" width="2" x="37" y="32"/><rect height="2" style="fill:#3d9ae2" width="2" x="25" y="28"/><rect height="2" style="fill:#3d9ae2" width="2" x="21" y="28"/><rect height="2" style="fill:#3d9ae2" width="2" x="25" y="32"/><rect height="2" style="fill:#3d9ae2" width="2" x="21" y="32"/><rect height="2" style="fill:#3d9ae2" width="2" x="33" y="36"/><rect height="2" style="fill:#3d9ae2" width="2" x="29" y="36"/><rect height="2" style="fill:#3d9ae2" width="2" x="33" y="40"/><rect height="2" style="fill:#3d9ae2" width="2" x="29" y="40"/><rect height="2" style="fill:#3d9ae2" width="2" x="41" y="36"/><rect height="2" style="fill:#3d9ae2" width="2" x="37" y="36"/><rect height="2" style="fill:#3d9ae2" width="2" x="41" y="40"/><rect height="2" style="fill:#3d9ae2" width="2" x="37" y="40"/><rect height="2" style="fill:#3d9ae2" width="2" x="25" y="36"/><rect height="2" style="fill:#3d9ae2" width="2" x="21" y="36"/><rect height="2" style="fill:#3d9ae2" width="2" x="25" y="40"/><rect height="2" style="fill:#3d9ae2" width="2" x="21" y="40"/><path d="M61,56V27a1,1,0,0,0,.89-1.45l-3-6A.988.988,0,0,0,58,19H52V16a1,1,0,0,0-.44-.83l-19-13a1,1,0,0,0-1.12,0l-19,13A1,1,0,0,0,12,16v3H6a.977.977,0,0,0-.89.55l-3,6A1,1,0,0,0,3,27V56a1,1,0,0,0-1,1v4a1,1,0,0,0,1,1H61a1,1,0,0,0,1-1V57A1,1,0,0,0,61,56ZM51,23a1.007,1.007,0,0,0,1-1V21h5.38l2,4H49V21.84l1.44.99A1,1,0,0,0,51,23Zm8,4V56H49V27ZM14,16.53,32,4.21,50,16.53V20.1L32.56,8.17a1.007,1.007,0,0,0-1.12,0L14,20.1ZM22,44v2h2V56H17V20.47L32,10.21,47,20.47V56H40V46h2V44Zm16,2V56H33V46Zm-7,0V56H26V46ZM6.62,21H12v1a1,1,0,0,0,1.56.83L15,21.84V25H4.62ZM15,27V56H5V27ZM60,60H4V58H60Z" style="fill:#3d9ae2"/><path d="M32,14a6,6,0,1,0,6,6A6.006,6.006,0,0,0,32,14Zm0,10a4,4,0,1,1,4-4A4,4,0,0,1,32,24Z" style="fill:#3d9ae2"/></g></svg>